<svg id="visual" viewBox="0 0 1920 1080" width="1920" height="1080" xmlns="http://www.w3.org/2000/svg" xmlns:xlink="http://www.w3.org/1999/xlink" version="1.1"><rect x="0" y="0" width="1920" height="1080" fill="#ffffff"></rect><path d="M0 525L35.5 510.2C71 495.3 142 465.7 213.2 466C284.3 466.3 355.7 496.7 426.8 492.8C498 489 569 451 640 448.8C711 446.7 782 480.3 853.2 504.5C924.3 528.7 995.7 543.3 1066.8 543.7C1138 544 1209 530 1280 503C1351 476 1422 436 1493.2 436.5C1564.3 437 1635.7 478 1706.8 492.3C1778 506.7 1849 494.3 1884.5 488.2L1920 482L1920 1081L1884.5 1081C1849 1081 1778 1081 1706.8 1081C1635.7 1081 1564.3 1081 1493.2 1081C1422 1081 1351 1081 1280 1081C1209 1081 1138 1081 1066.8 1081C995.7 1081 924.3 1081 853.2 1081C782 1081 711 1081 640 1081C569 1081 498 1081 426.8 1081C355.7 1081 284.3 1081 213.2 1081C142 1081 71 1081 35.5 1081L0 1081Z" fill="#96d0de"></path><path d="M0 561L35.5 561C71 561 142 561 213.2 576C284.3 591 355.7 621 426.8 634.8C498 648.7 569 646.3 640 633.5C711 620.7 782 597.3 853.2 586.2C924.3 575 995.7 576 1066.8 596.5C1138 617 1209 657 1280 652.3C1351 647.7 1422 598.3 1493.2 587.5C1564.3 576.7 1635.7 604.3 1706.8 614C1778 623.7 1849 615.3 1884.5 611.2L1920 607L1920 1081L1884.5 1081C1849 1081 1778 1081 1706.8 1081C1635.7 1081 1564.3 1081 1493.2 1081C1422 1081 1351 1081 1280 1081C1209 1081 1138 1081 1066.8 1081C995.7 1081 924.3 1081 853.2 1081C782 1081 711 1081 640 1081C569 1081 498 1081 426.8 1081C355.7 1081 284.3 1081 213.2 1081C142 1081 71 1081 35.5 1081L0 1081Z" fill="#76c6e5"></path><path d="M0 783L35.5 787.2C71 791.3 142 799.7 213.2 807.3C284.3 815 355.7 822 426.8 814.5C498 807 569 785 640 761.7C711 738.3 782 713.7 853.2 710.3C924.3 707 995.7 725 1066.8 752.7C1138 780.3 1209 817.7 1280 829.2C1351 840.7 1422 826.3 1493.2 809.2C1564.3 792 1635.7 772 1706.8 774.2C1778 776.3 1849 800.7 1884.5 812.8L1920 825L1920 1081L1884.5 1081C1849 1081 1778 1081 1706.8 1081C1635.7 1081 1564.3 1081 1493.2 1081C1422 1081 1351 1081 1280 1081C1209 1081 1138 1081 1066.8 1081C995.7 1081 924.3 1081 853.2 1081C782 1081 711 1081 640 1081C569 1081 498 1081 426.8 1081C355.7 1081 284.3 1081 213.2 1081C142 1081 71 1081 35.5 1081L0 1081Z" fill="#5abaef"></path><path d="M0 903L35.5 898C71 893 142 883 213.2 893.3C284.3 903.7 355.7 934.3 426.8 939.3C498 944.3 569 923.7 640 913.7C711 903.7 782 904.3 853.2 910.3C924.3 916.3 995.7 927.7 1066.8 941.2C1138 954.7 1209 970.3 1280 961.5C1351 952.7 1422 919.3 1493.2 905.3C1564.3 891.3 1635.7 896.7 1706.8 899.7C1778 902.7 1849 903.3 1884.5 903.7L1920 904L1920 1081L1884.5 1081C1849 1081 1778 1081 1706.8 1081C1635.7 1081 1564.3 1081 1493.2 1081C1422 1081 1351 1081 1280 1081C1209 1081 1138 1081 1066.8 1081C995.7 1081 924.3 1081 853.2 1081C782 1081 711 1081 640 1081C569 1081 498 1081 426.8 1081C355.7 1081 284.3 1081 213.2 1081C142 1081 71 1081 35.5 1081L0 1081Z" fill="#4facf7"></path></svg>