<svg id="visual" viewBox="0 0 2000 900" width="2000" height="900" xmlns="http://www.w3.org/2000/svg" xmlns:xlink="http://www.w3.org/1999/xlink" version="1.1"><rect x="0" y="0" width="2000" height="900" fill="#FFFFFF"></rect><path d="M0 434L47.7 432C95.3 430 190.7 426 285.8 427.7C381 429.3 476 436.7 571.2 438C666.3 439.3 761.7 434.7 857 434C952.3 433.3 1047.7 436.7 1143 444.7C1238.3 452.7 1333.7 465.3 1428.8 473.8C1524 482.3 1619 486.7 1714.2 477C1809.3 467.3 1904.7 443.7 1952.3 431.8L2000 420L2000 901L1952.3 901C1904.7 901 1809.3 901 1714.2 901C1619 901 1524 901 1428.8 901C1333.7 901 1238.3 901 1143 901C1047.7 901 952.3 901 857 901C761.7 901 666.3 901 571.2 901C476 901 381 901 285.8 901C190.7 901 95.3 901 47.7 901L0 901Z" fill="#8ecfe5"></path><path d="M0 524L47.7 525.7C95.3 527.3 190.7 530.7 285.8 532C381 533.3 476 532.7 571.2 536.2C666.3 539.7 761.7 547.3 857 553C952.3 558.7 1047.7 562.3 1143 554.5C1238.3 546.7 1333.7 527.3 1428.8 524.7C1524 522 1619 536 1714.2 546.2C1809.3 556.3 1904.7 562.7 1952.3 565.8L2000 569L2000 901L1952.3 901C1904.7 901 1809.3 901 1714.2 901C1619 901 1524 901 1428.8 901C1333.7 901 1238.3 901 1143 901C1047.7 901 952.3 901 857 901C761.7 901 666.3 901 571.2 901C476 901 381 901 285.8 901C190.7 901 95.3 901 47.7 901L0 901Z" fill="#4fbcf1"></path><path d="M0 603L47.7 605.3C95.3 607.7 190.7 612.3 285.8 622.2C381 632 476 647 571.2 653.5C666.3 660 761.7 658 857 656.8C952.3 655.7 1047.7 655.3 1143 652.5C1238.3 649.7 1333.7 644.3 1428.8 638.7C1524 633 1619 627 1714.2 623.5C1809.3 620 1904.7 619 1952.3 618.5L2000 618L2000 901L1952.3 901C1904.7 901 1809.3 901 1714.2 901C1619 901 1524 901 1428.8 901C1333.7 901 1238.3 901 1143 901C1047.7 901 952.3 901 857 901C761.7 901 666.3 901 571.2 901C476 901 381 901 285.8 901C190.7 901 95.3 901 47.7 901L0 901Z" fill="#00a4fd"></path><path d="M0 710L47.7 703.8C95.3 697.7 190.7 685.3 285.8 679C381 672.7 476 672.3 571.2 674.2C666.3 676 761.7 680 857 687.5C952.3 695 1047.7 706 1143 708C1238.3 710 1333.7 703 1428.8 696.2C1524 689.3 1619 682.7 1714.2 685.2C1809.3 687.7 1904.7 699.3 1952.3 705.2L2000 711L2000 901L1952.3 901C1904.7 901 1809.3 901 1714.2 901C1619 901 1524 901 1428.8 901C1333.7 901 1238.3 901 1143 901C1047.7 901 952.3 901 857 901C761.7 901 666.3 901 571.2 901C476 901 381 901 285.8 901C190.7 901 95.3 901 47.7 901L0 901Z" fill="#0088ff"></path><path d="M0 764L47.7 765.2C95.3 766.3 190.7 768.7 285.8 767.2C381 765.7 476 760.3 571.2 765.7C666.3 771 761.7 787 857 792.2C952.3 797.3 1047.7 791.7 1143 784.8C1238.3 778 1333.7 770 1428.8 770.7C1524 771.3 1619 780.7 1714.2 781.3C1809.3 782 1904.7 774 1952.3 770L2000 766L2000 901L1952.3 901C1904.7 901 1809.3 901 1714.2 901C1619 901 1524 901 1428.8 901C1333.7 901 1238.3 901 1143 901C1047.7 901 952.3 901 857 901C761.7 901 666.3 901 571.2 901C476 901 381 901 285.8 901C190.7 901 95.3 901 47.7 901L0 901Z" fill="#0066ff"></path></svg>