<?xml version="1.0" standalone="no"?>
<!DOCTYPE svg PUBLIC "-//W3C//DTD SVG 20010904//EN"
 "http://www.w3.org/TR/2001/REC-SVG-20010904/DTD/svg10.dtd">
<svg version="1.0" xmlns="http://www.w3.org/2000/svg"
 width="652.000000pt" height="126.000000pt" viewBox="0 0 652.000000 126.000000"
 preserveAspectRatio="xMidYMid meet">

<g transform="translate(0.000000,126.000000) scale(0.100000,-0.100000)"
fill="#000000" stroke="none">
<path d="M3619 1201 c-24 -25 -29 -37 -29 -81 0 -60 19 -94 62 -109 55 -20 94
-14 133 20 30 27 35 37 35 76 0 39 -5 51 -39 84 -34 34 -44 39 -86 39 -38 0
-52 -5 -76 -29z"/>
<path d="M339 1206 c-64 -24 -117 -67 -150 -117 -42 -66 -47 -118 -19 -194 20
-53 39 -76 169 -205 127 -125 149 -151 160 -191 19 -68 13 -83 -32 -87 -35 -3
-43 2 -117 74 l-80 77 -37 -26 c-21 -15 -53 -40 -71 -56 l-34 -29 20 -38 c11
-22 49 -67 83 -102 100 -98 179 -119 312 -82 46 13 151 99 173 142 25 48 14
137 -26 223 -28 60 -53 90 -173 208 -138 135 -140 138 -134 174 7 42 20 53 62
53 39 0 67 -20 105 -75 17 -25 34 -45 38 -45 19 0 122 103 122 121 0 29 -91
121 -151 154 -62 33 -163 43 -220 21z"/>
<path d="M3521 1108 c-38 -41 -43 -73 -5 -37 29 27 48 58 41 65 -3 3 -19 -10
-36 -28z"/>
<path d="M3522 1047 c-17 -18 -32 -41 -32 -50 0 -12 11 -5 36 23 44 49 41 74
-4 27z"/>
<path d="M3535 990 c-21 -22 -36 -43 -32 -47 8 -7 87 65 87 79 0 17 -17 7 -55
-32z"/>
<path d="M92 984 c-43 -52 -41 -67 4 -22 20 19 35 41 32 48 -2 8 -17 -2 -36
-26z"/>
<path d="M420 985 c-12 -13 -20 -29 -18 -35 2 -6 16 2 31 18 16 17 24 32 19
36 -5 3 -19 -5 -32 -19z"/>
<path d="M3575 960 c-24 -25 -33 -40 -24 -40 15 0 79 59 79 73 0 16 -18 5 -55
-33z"/>
<path d="M6024 991 c-50 -13 -103 -50 -121 -84 -12 -21 -17 -56 -18 -103 0
-66 2 -74 40 -130 28 -40 64 -75 110 -107 106 -73 145 -110 145 -140 0 -65
-119 -53 -201 19 -8 8 -20 14 -24 14 -19 0 -95 -85 -95 -106 0 -41 79 -94 189
-125 124 -36 192 -21 266 54 134 137 88 288 -120 397 -74 39 -110 76 -99 103
9 25 34 21 98 -18 32 -19 64 -35 71 -35 16 0 115 107 115 125 0 18 -81 90
-131 115 -47 24 -170 36 -225 21z"/>
<path d="M4287 980 c-57 -15 -89 -34 -134 -83 -75 -81 -113 -189 -113 -323 0
-84 27 -146 96 -223 111 -123 341 -169 487 -97 57 27 167 134 167 161 0 21
-100 85 -131 85 -15 0 -32 -6 -38 -14 -6 -8 -35 -24 -63 -36 -84 -36 -195 -15
-234 45 -41 63 -21 176 45 246 34 35 43 39 87 39 27 -1 74 -10 104 -21 96 -36
99 -36 164 26 l59 56 -39 41 c-21 22 -68 54 -104 71 -60 29 -74 31 -190 34
-69 1 -142 -2 -163 -7z"/>
<path d="M455 950 c-42 -44 -21 -50 23 -7 24 24 31 37 21 37 -8 0 -28 -13 -44
-30z"/>
<path d="M1178 967 c-168 -63 -253 -197 -253 -397 1 -117 24 -168 121 -259 56
-54 85 -73 125 -85 70 -21 230 -21 292 0 55 19 167 121 167 152 0 13 -19 34
-57 61 -56 40 -58 40 -83 24 -80 -53 -112 -65 -188 -70 -62 -3 -84 -1 -112 14
-32 17 -79 82 -80 110 0 9 67 13 266 15 314 4 298 -3 291 115 -8 132 -77 236
-202 301 -42 22 -66 26 -150 29 -67 2 -112 -1 -137 -10z m249 -213 c64 -52 60
-54 -112 -54 -152 0 -155 0 -145 20 21 40 98 71 168 66 40 -2 61 -9 89 -32z"/>
<path d="M1251 757 c-14 -6 -26 -18 -29 -24 -6 -21 13 -15 38 12 26 28 25 30
-9 12z"/>
<path d="M1300 745 c-17 -18 -20 -25 -8 -25 8 0 25 11 38 25 17 18 20 25 8 25
-8 0 -25 -11 -38 -25z"/>
<path d="M1360 745 c-7 -9 -10 -18 -7 -21 7 -8 47 14 47 26 0 15 -26 12 -40
-5z"/>
<path d="M3650 965 c-16 -19 0 -19 26 0 16 12 16 14 3 15 -9 0 -22 -7 -29 -15z"/>
<path d="M3715 969 c-11 -17 1 -21 15 -4 8 9 8 15 2 15 -6 0 -14 -5 -17 -11z"/>
<path d="M5189 966 c-175 -67 -254 -190 -253 -391 0 -122 23 -173 117 -261 90
-86 117 -96 253 -102 147 -6 191 8 274 88 33 32 60 66 60 77 0 20 -89 93 -114
93 -8 0 -42 -16 -75 -36 -51 -31 -72 -37 -139 -41 -60 -4 -85 -2 -109 11 -36
18 -69 60 -78 99 l-7 26 267 3 c315 4 299 -3 292 115 -8 132 -77 236 -202 301
-42 22 -65 26 -150 29 -67 2 -112 -2 -136 -11z m248 -212 c64 -52 60 -54 -112
-54 -149 0 -155 1 -146 19 24 44 93 72 169 67 40 -2 61 -9 89 -32z"/>
<path d="M5261 757 c-14 -6 -26 -18 -29 -24 -6 -21 13 -15 38 12 26 28 25 30
-9 12z"/>
<path d="M5310 745 c-30 -32 -10 -33 27 0 20 17 23 24 12 25 -8 0 -26 -11 -39
-25z"/>
<path d="M5370 745 c-7 -9 -11 -17 -9 -19 7 -7 49 13 49 24 0 15 -26 12 -40
-5z"/>
<path d="M2120 930 l-65 -29 -5 22 c-6 21 -11 22 -100 22 l-95 0 3 -345 c2
-190 6 -353 9 -362 4 -16 18 -18 110 -18 l106 0 -7 48 c-3 26 -9 110 -12 187
-7 160 0 202 46 258 36 42 64 47 131 21 37 -15 44 -15 72 -2 39 19 127 96 127
110 0 29 -53 78 -105 97 -77 29 -136 27 -215 -9z"/>
<path d="M3101 791 c-47 -94 -88 -171 -92 -171 -13 0 -28 26 -88 160 -34 74
-69 142 -78 152 -13 15 -33 18 -120 18 -78 0 -105 -3 -109 -13 -3 -8 10 -45
29 -83 19 -38 51 -112 71 -164 20 -52 78 -178 129 -280 l92 -185 81 -3 c57 -2
84 1 92 10 15 19 229 470 263 557 17 41 33 94 36 118 l6 43 -64 0 c-35 0 -86
3 -114 6 l-50 6 -84 -171z"/>
<path d="M86 911 c-22 -23 -38 -43 -35 -45 9 -9 82 60 78 73 -3 7 -21 -5 -43
-28z"/>
<path d="M484 917 c-23 -22 -33 -37 -24 -37 23 0 74 44 68 60 -3 10 -16 3 -44
-23z"/>
<path d="M3600 616 c0 -172 3 -328 6 -345 l7 -31 108 0 109 0 0 326 c0 205 -4
332 -10 345 -10 17 -22 19 -115 19 l-105 0 0 -314z"/>
<path d="M2545 868 l-40 -43 43 40 c23 21 42 40 42 42 0 8 -9 0 -45 -39z"/>
<path d="M511 876 c-12 -13 -18 -26 -13 -30 5 -3 22 8 37 24 20 21 24 30 14
30 -9 0 -26 -11 -38 -24z"/>
<path d="M92 857 c-47 -48 -39 -68 8 -22 22 21 40 43 40 47 0 16 -17 7 -48
-25z"/>
<path d="M3531 856 c-18 -19 -32 -39 -29 -46 2 -6 18 5 37 24 18 19 32 39 29
46 -2 6 -18 -5 -37 -24z"/>
<path d="M2565 840 c-21 -22 -35 -43 -32 -47 4 -4 26 11 48 34 23 22 37 43 32
46 -5 4 -27 -12 -48 -33z"/>
<path d="M1787 839 c-20 -17 -37 -38 -37 -47 0 -12 13 -4 42 25 50 51 47 65
-5 22z"/>
<path d="M116 815 c-21 -18 -37 -38 -34 -46 3 -9 18 0 48 27 52 49 41 65 -14
19z"/>
<path d="M2586 800 c-50 -55 -35 -74 17 -21 29 29 38 44 31 51 -8 8 -22 -1
-48 -30z"/>
<path d="M5822 807 c-39 -40 -44 -72 -6 -36 27 25 48 58 42 65 -3 2 -19 -11
-36 -29z"/>
<path d="M3531 786 c-18 -19 -32 -39 -29 -46 2 -6 18 5 37 24 18 19 32 39 29
46 -2 6 -18 -5 -37 -24z"/>
<path d="M135 770 c-21 -22 -36 -43 -32 -47 8 -7 87 65 87 79 0 17 -17 7 -55
-32z"/>
<path d="M1787 771 c-36 -40 -46 -61 -29 -61 13 0 74 79 70 91 -2 6 -20 -7
-41 -30z"/>
<path d="M2605 750 c-21 -22 -36 -43 -32 -47 8 -7 87 65 87 79 0 17 -17 7 -55
-32z"/>
<path d="M4024 758 c-12 -13 -24 -32 -28 -43 -5 -15 1 -12 25 11 17 18 30 37
28 43 -3 8 -12 3 -25 -11z"/>
<path d="M5816 741 c-21 -21 -37 -44 -35 -50 3 -7 22 6 43 28 21 21 37 44 35
50 -3 7 -22 -6 -43 -28z"/>
<path d="M6120 770 c-9 -6 -10 -10 -3 -10 6 0 15 5 18 10 8 12 4 12 -15 0z"/>
<path d="M160 735 c-18 -19 -30 -38 -27 -42 8 -7 77 55 77 69 0 16 -17 7 -50
-27z"/>
<path d="M4906 730 c-39 -44 -50 -77 -13 -39 26 26 62 79 54 79 -2 0 -21 -18
-41 -40z"/>
<path d="M891 725 c-17 -20 -31 -41 -31 -48 0 -7 16 6 35 27 31 35 43 56 31
56 -2 0 -18 -16 -35 -35z"/>
<path d="M3533 720 c-18 -20 -33 -44 -33 -51 1 -19 70 57 70 76 0 19 1 20 -37
-25z"/>
<path d="M4383 725 c-20 -20 -33 -39 -29 -42 4 -4 26 12 49 35 23 23 36 42 28
42 -7 0 -29 -16 -48 -35z"/>
<path d="M4445 720 c-25 -25 -33 -40 -24 -40 19 0 84 66 71 73 -5 4 -26 -12
-47 -33z"/>
<path d="M6150 740 c0 -5 4 -10 9 -10 6 0 13 5 16 10 3 6 -1 10 -9 10 -9 0
-16 -4 -16 -10z"/>
<path d="M197 702 c-21 -21 -34 -41 -30 -45 7 -8 83 61 83 75 0 17 -17 7 -53
-30z"/>
<path d="M1792 707 c-42 -43 -43 -71 -1 -31 34 32 54 64 41 64 -4 0 -22 -15
-40 -33z"/>
<path d="M2625 700 c-21 -22 -36 -42 -34 -45 3 -2 23 13 44 35 21 22 36 42 34
45 -3 2 -23 -13 -44 -35z"/>
<path d="M4495 700 c-51 -52 -27 -52 28 0 26 25 36 40 27 40 -9 0 -34 -18 -55
-40z"/>
<path d="M2134 708 l-19 -23 23 19 c21 18 27 26 19 26 -2 0 -12 -10 -23 -22z"/>
<path d="M2165 690 c-21 -22 -35 -43 -32 -47 4 -4 26 11 48 34 23 22 37 43 32
46 -5 4 -27 -12 -48 -33z"/>
<path d="M4545 690 c-21 -22 -35 -43 -32 -47 4 -4 26 11 48 34 23 22 37 43 32
46 -5 4 -27 -12 -48 -33z"/>
<path d="M6197 723 c-12 -12 -7 -22 8 -17 8 4 15 10 15 15 0 11 -14 12 -23 2z"/>
<path d="M5826 681 c-22 -23 -36 -44 -33 -48 10 -9 80 62 76 76 -3 7 -22 -6
-43 -28z"/>
<path d="M226 671 c-21 -21 -34 -41 -28 -45 12 -7 94 63 86 75 -9 15 -18 10
-58 -30z"/>
<path d="M2204 669 c-32 -33 -35 -39 -18 -39 27 0 91 65 71 73 -9 3 -30 -11
-53 -34z"/>
<path d="M4595 668 l-40 -41 42 34 c24 19 43 37 43 42 0 12 -4 9 -45 -35z"/>
<path d="M3993 666 c-47 -53 -44 -82 3 -35 21 22 35 44 32 54 -2 15 -9 12 -35
-19z"/>
<path d="M1801 656 c-18 -19 -32 -39 -29 -46 2 -6 18 5 37 24 18 19 32 39 29
46 -2 6 -18 -5 -37 -24z"/>
<path d="M2642 657 c-47 -48 -39 -68 8 -22 22 21 40 43 40 47 0 16 -17 7 -48
-25z"/>
<path d="M3531 656 c-18 -19 -32 -39 -29 -46 2 -6 18 5 37 24 18 19 32 39 29
46 -2 6 -18 -5 -37 -24z"/>
<path d="M265 640 c-21 -22 -36 -43 -32 -47 8 -7 87 65 87 79 0 17 -17 7 -55
-32z"/>
<path d="M5851 639 c-18 -22 -30 -43 -27 -46 8 -9 76 57 76 74 0 22 -14 14
-49 -28z"/>
<path d="M861 635 c-17 -20 -31 -41 -31 -47 0 -13 57 38 71 65 17 30 -7 19
-40 -18z"/>
<path d="M4871 635 c-45 -51 -38 -66 9 -20 22 21 40 43 40 47 0 17 -19 6 -49
-27z"/>
<path d="M310 615 c-22 -23 -29 -35 -19 -35 15 0 69 49 69 63 0 15 -18 5 -50
-28z"/>
<path d="M2662 617 c-18 -18 -32 -42 -32 -52 0 -15 8 -12 40 20 37 36 51 65
32 65 -4 0 -22 -15 -40 -33z"/>
<path d="M5877 595 c-21 -25 -34 -45 -28 -45 11 0 81 71 81 83 0 17 -18 4 -53
-38z"/>
<path d="M350 585 c-19 -19 -30 -38 -26 -42 3 -4 23 9 42 29 20 19 32 38 27
41 -6 4 -25 -9 -43 -28z"/>
<path d="M1801 586 c-18 -19 -32 -39 -29 -46 2 -6 18 5 37 24 18 19 32 39 29
46 -2 6 -18 -5 -37 -24z"/>
<path d="M3531 586 c-18 -19 -32 -39 -29 -46 2 -6 18 5 37 24 18 19 32 39 29
46 -2 6 -18 -5 -37 -24z"/>
<path d="M3978 577 c-52 -54 -48 -72 3 -20 23 22 40 45 38 50 -2 5 -21 -9 -41
-30z"/>
<path d="M2685 569 c-21 -20 -36 -40 -34 -46 6 -15 82 53 77 68 -3 8 -18 0
-43 -22z"/>
<path d="M5905 560 c-21 -22 -36 -43 -32 -47 8 -7 87 65 87 79 0 17 -17 7 -55
-32z"/>
<path d="M382 557 c-34 -35 -39 -47 -19 -47 16 0 69 67 59 74 -5 3 -23 -9 -40
-27z"/>
<path d="M851 556 c-18 -19 -32 -39 -29 -46 2 -6 18 5 37 24 18 19 32 39 29
46 -2 6 -18 -5 -37 -24z"/>
<path d="M4861 556 c-18 -19 -32 -39 -29 -46 2 -6 18 5 37 24 18 19 32 39 29
46 -2 6 -18 -5 -37 -24z"/>
<path d="M5941 529 c-19 -22 -31 -43 -27 -47 7 -6 75 66 76 81 0 15 -16 4 -49
-34z"/>
<path d="M1801 526 c-18 -19 -32 -39 -29 -46 2 -6 18 5 37 24 18 19 32 39 29
46 -2 6 -18 -5 -37 -24z"/>
<path d="M2706 521 c-21 -21 -37 -44 -35 -50 3 -7 22 6 43 28 21 21 37 44 35
50 -3 7 -22 -6 -43 -28z"/>
<path d="M3531 526 c-18 -19 -32 -39 -29 -46 2 -6 18 5 37 24 18 19 32 39 29
46 -2 6 -18 -5 -37 -24z"/>
<path d="M417 522 c-38 -40 -35 -64 4 -25 17 17 30 36 28 42 -3 7 -16 0 -32
-17z"/>
<path d="M3978 515 c-21 -18 -38 -41 -38 -51 0 -14 10 -9 41 23 51 50 48 74
-3 28z"/>
<path d="M861 505 c-17 -20 -31 -40 -31 -46 0 -15 59 32 66 54 10 32 -2 29
-35 -8z"/>
<path d="M4871 503 c-17 -21 -31 -41 -31 -46 0 -14 60 36 66 56 10 33 -3 29
-35 -10z"/>
<path d="M5985 510 c-20 -21 -24 -30 -14 -30 15 0 59 40 59 53 0 15 -17 6 -45
-23z"/>
<path d="M1580 495 c-13 -14 -19 -25 -13 -25 12 0 48 38 41 45 -2 3 -15 -6
-28 -20z"/>
<path d="M5590 495 c-13 -14 -19 -25 -13 -25 12 0 48 38 41 45 -2 3 -15 -6
-28 -20z"/>
<path d="M6030 485 c-22 -23 -29 -35 -19 -35 20 0 74 56 61 64 -5 3 -24 -10
-42 -29z"/>
<path d="M442 487 c-32 -34 -28 -58 4 -25 15 14 25 31 22 38 -2 7 -12 2 -26
-13z"/>
<path d="M1138 503 c7 -3 16 -2 19 1 4 3 -2 6 -13 5 -11 0 -14 -3 -6 -6z"/>
<path d="M1175 490 c-28 -31 -8 -37 23 -7 19 20 22 27 11 27 -9 0 -24 -9 -34
-20z"/>
<path d="M1220 475 c-22 -23 -29 -35 -19 -35 8 0 30 16 49 35 22 23 29 35 19
35 -8 0 -30 -16 -49 -35z"/>
<path d="M1294 475 c-21 -19 -33 -34 -26 -35 7 0 29 16 50 35 48 45 27 46 -24
0z"/>
<path d="M1356 475 c-32 -28 -35 -35 -20 -35 11 0 35 16 54 35 44 46 18 45
-34 0z"/>
<path d="M1425 475 c-22 -19 -35 -35 -29 -35 12 0 94 57 94 65 0 14 -29 0 -65
-30z"/>
<path d="M1520 500 c0 -5 4 -10 9 -10 6 0 13 5 16 10 3 6 -1 10 -9 10 -9 0
-16 -4 -16 -10z"/>
<path d="M2727 476 c-20 -19 -37 -39 -37 -46 0 -13 60 33 73 57 16 27 1 23
-36 -11z"/>
<path d="M5145 500 c4 -6 11 -8 16 -5 14 9 11 15 -7 15 -8 0 -12 -5 -9 -10z"/>
<path d="M5185 490 c-28 -31 -8 -37 23 -7 19 20 22 27 11 27 -9 0 -24 -9 -34
-20z"/>
<path d="M5230 475 c-22 -23 -29 -35 -19 -35 8 0 30 16 49 35 22 23 29 35 19
35 -8 0 -30 -16 -49 -35z"/>
<path d="M5302 475 c-20 -19 -31 -35 -24 -35 7 0 29 16 50 35 20 19 31 35 24
35 -7 0 -29 -16 -50 -35z"/>
<path d="M5373 480 c-36 -32 -40 -40 -20 -40 7 0 28 16 47 35 42 43 19 47 -27
5z"/>
<path d="M5435 475 c-22 -19 -35 -35 -29 -35 10 0 94 58 94 66 0 13 -30 -1
-65 -31z"/>
<path d="M5530 500 c0 -13 11 -13 30 0 12 8 11 10 -7 10 -13 0 -23 -4 -23 -10z"/>
<path d="M1797 454 c-16 -19 -27 -37 -25 -39 6 -6 68 52 68 64 0 20 -14 12
-43 -25z"/>
<path d="M3536 458 c-22 -19 -37 -39 -35 -46 2 -7 19 2 42 23 50 46 43 66 -7
23z"/>
<path d="M3986 451 c-22 -23 -36 -44 -33 -48 10 -9 80 62 76 76 -3 7 -22 -6
-43 -28z"/>
<path d="M6066 461 c-15 -16 -23 -31 -18 -35 5 -3 24 10 42 29 22 23 29 35 19
35 -8 0 -28 -13 -43 -29z"/>
<path d="M866 441 c-22 -23 -36 -44 -33 -48 10 -9 80 62 76 76 -3 7 -22 -6
-43 -28z"/>
<path d="M4876 441 c-22 -23 -36 -44 -33 -48 10 -9 80 62 76 76 -3 7 -22 -6
-43 -28z"/>
<path d="M2745 430 c-21 -22 -36 -43 -32 -47 8 -7 87 65 87 79 0 17 -17 7 -55
-32z"/>
<path d="M6115 437 c-16 -14 -24 -26 -18 -30 11 -7 60 39 51 48 -3 4 -18 -5
-33 -18z"/>
<path d="M465 440 c-3 -5 -1 -10 4 -10 6 0 11 5 11 10 0 6 -2 10 -4 10 -3 0
-8 -4 -11 -10z"/>
<path d="M4000 405 c-18 -19 -31 -37 -28 -40 7 -7 78 53 78 66 0 17 -16 9 -50
-26z"/>
<path d="M875 390 c-21 -22 -36 -43 -32 -47 8 -7 87 65 87 79 0 17 -17 7 -55
-32z"/>
<path d="M1801 396 c-18 -19 -32 -39 -29 -46 2 -6 18 5 37 24 18 19 32 39 29
46 -2 6 -18 -5 -37 -24z"/>
<path d="M3541 396 c-18 -19 -32 -39 -29 -46 2 -6 18 5 37 24 18 19 32 39 29
46 -2 6 -18 -5 -37 -24z"/>
<path d="M4885 390 c-21 -22 -36 -43 -32 -47 8 -7 87 65 87 79 0 17 -17 7 -55
-32z"/>
<path d="M75 380 c-21 -22 -35 -43 -32 -47 4 -4 26 11 48 34 23 22 37 43 32
46 -5 4 -27 -12 -48 -33z"/>
<path d="M2767 382 c-21 -21 -35 -41 -31 -45 7 -7 84 61 84 75 0 17 -17 7 -53
-30z"/>
<path d="M4020 360 c-17 -22 -28 -40 -23 -40 5 0 27 18 48 40 27 27 34 40 23
40 -9 0 -31 -18 -48 -40z"/>
<path d="M896 341 c-21 -21 -34 -41 -29 -44 6 -4 29 14 53 38 27 27 38 45 29
45 -8 0 -32 -17 -53 -39z"/>
<path d="M2785 340 c-21 -22 -36 -43 -32 -47 8 -7 87 65 87 79 0 17 -17 7 -55
-32z"/>
<path d="M4906 341 c-21 -21 -34 -41 -29 -44 6 -4 29 14 53 38 27 27 38 45 29
45 -8 0 -32 -17 -53 -39z"/>
<path d="M93 333 c-32 -34 -41 -53 -25 -53 10 0 82 73 82 83 0 17 -28 3 -57
-30z"/>
<path d="M1806 331 c-21 -21 -37 -44 -35 -50 3 -7 22 6 43 28 21 21 37 44 35
50 -3 7 -22 -6 -43 -28z"/>
<path d="M4048 326 c-21 -24 -34 -47 -31 -50 9 -8 83 64 83 81 0 23 -15 14
-52 -31z"/>
<path d="M3541 326 c-18 -19 -32 -39 -29 -46 2 -6 18 5 37 24 18 19 32 39 29
46 -2 6 -18 -5 -37 -24z"/>
<path d="M931 306 c-23 -24 -39 -46 -34 -49 13 -8 86 68 82 82 -3 7 -24 -8
-48 -33z"/>
<path d="M4941 306 c-23 -24 -39 -46 -34 -49 13 -8 86 68 82 82 -3 7 -24 -8
-48 -33z"/>
<path d="M5795 310 c-21 -22 -36 -42 -34 -45 3 -2 23 13 44 35 21 22 36 42 34
45 -3 2 -23 -13 -44 -35z"/>
<path d="M127 302 c-38 -38 -45 -52 -27 -52 16 0 80 61 80 76 0 23 -14 16 -53
-24z"/>
<path d="M2805 290 c-21 -22 -36 -43 -32 -47 8 -7 87 65 87 79 0 17 -17 7 -55
-32z"/>
<path d="M4085 290 c-21 -22 -35 -43 -31 -47 6 -7 38 23 75 70 26 33 -5 17
-44 -23z"/>
<path d="M965 270 c-42 -43 -41 -69 1 -29 27 25 48 58 42 65 -3 2 -22 -14 -43
-36z"/>
<path d="M4975 270 c-42 -43 -41 -69 1 -29 27 25 48 58 42 65 -3 2 -22 -14
-43 -36z"/>
<path d="M5815 270 c-42 -43 -41 -69 1 -29 27 25 48 58 42 65 -3 2 -22 -14
-43 -36z"/>
<path d="M157 262 c-21 -21 -35 -41 -32 -44 6 -6 28 13 69 60 33 38 2 24 -37
-16z"/>
<path d="M1812 267 c-39 -40 -44 -72 -6 -36 27 25 48 58 42 65 -3 2 -19 -11
-36 -29z"/>
<path d="M3541 266 c-18 -19 -32 -39 -29 -46 2 -6 18 5 37 24 18 19 32 39 29
46 -2 6 -18 -5 -37 -24z"/>
<path d="M4115 260 c-21 -22 -36 -43 -32 -47 8 -7 87 65 87 79 0 17 -17 7 -55
-32z"/>
<path d="M2832 257 c-31 -31 -41 -57 -24 -57 13 0 72 64 72 78 0 20 -14 14
-48 -21z"/>
<path d="M995 240 c-21 -22 -36 -43 -32 -47 8 -7 87 65 87 79 0 17 -17 7 -55
-32z"/>
<path d="M5005 240 c-21 -22 -36 -43 -32 -47 8 -7 87 65 87 79 0 17 -17 7 -55
-32z"/>
<path d="M5845 240 c-21 -22 -35 -43 -32 -47 4 -4 26 11 48 34 23 22 37 43 32
46 -5 4 -27 -12 -48 -33z"/>
<path d="M192 237 c-47 -48 -39 -68 8 -22 22 21 40 43 40 47 0 16 -17 7 -48
-25z"/>
<path d="M4155 230 c-21 -22 -36 -43 -32 -47 8 -7 87 65 87 79 0 17 -17 7 -55
-32z"/>
<path d="M1031 209 c-19 -22 -31 -43 -27 -47 8 -8 76 62 76 78 0 18 -14 9 -49
-31z"/>
<path d="M2856 211 c-22 -23 -36 -44 -33 -48 10 -9 80 62 76 76 -3 7 -22 -6
-43 -28z"/>
<path d="M4195 210 c-26 -27 -36 -43 -29 -50 7 -7 23 3 49 30 26 27 36 43 29
50 -7 7 -23 -3 -49 -30z"/>
<path d="M5041 209 c-19 -22 -31 -43 -27 -47 8 -8 76 62 76 78 0 18 -14 9 -49
-31z"/>
<path d="M5887 212 c-21 -21 -34 -41 -30 -45 7 -8 83 61 83 75 0 17 -17 7 -53
-30z"/>
<path d="M225 200 c-24 -25 -33 -40 -24 -40 15 0 79 59 79 73 0 16 -18 5 -55
-33z"/>
<path d="M1807 202 c-35 -36 -47 -62 -29 -62 13 0 74 79 70 91 -2 5 -20 -8
-41 -29z"/>
<path d="M3547 202 c-21 -21 -34 -41 -30 -45 7 -8 83 61 83 75 0 17 -17 7 -53
-30z"/>
<path d="M5926 191 c-27 -28 -34 -41 -25 -46 7 -5 24 6 46 30 57 64 39 78 -21
16z"/>
<path d="M270 184 c-41 -37 -50 -54 -27 -54 13 0 87 70 87 83 0 16 -22 5 -60
-29z"/>
<path d="M1072 187 c-35 -36 -39 -47 -18 -47 12 0 76 63 76 75 0 15 -31 0 -58
-28z"/>
<path d="M3585 180 c-51 -52 -24 -52 35 0 37 32 41 39 25 40 -12 0 -39 -18
-60 -40z"/>
<path d="M3655 180 c-24 -25 -33 -40 -24 -40 8 0 33 18 54 40 24 25 33 40 24
40 -8 0 -33 -18 -54 -40z"/>
<path d="M3725 180 c-24 -25 -33 -40 -24 -40 8 0 33 18 54 40 24 25 33 40 24
40 -8 0 -33 -18 -54 -40z"/>
<path d="M4240 185 c-18 -19 -30 -38 -26 -42 3 -4 26 12 49 35 26 26 36 42 26
42 -8 0 -30 -16 -49 -35z"/>
<path d="M4295 180 c-21 -22 -35 -43 -32 -47 4 -4 26 11 48 34 23 22 37 43 32
46 -5 4 -27 -12 -48 -33z"/>
<path d="M4579 193 l-24 -28 28 24 c15 14 27 26 27 28 0 8 -8 1 -31 -24z"/>
<path d="M5082 187 c-35 -36 -39 -47 -19 -47 13 0 52 38 70 68 17 26 -20 11
-51 -21z"/>
<path d="M495 200 c-11 -4 -30 -22 -43 -39 -35 -48 -1 -40 38 9 17 22 30 40
28 39 -1 0 -12 -4 -23 -9z"/>
<path d="M2875 170 c-21 -22 -36 -43 -32 -47 8 -7 87 65 87 79 0 17 -17 7 -55
-32z"/>
<path d="M4491 173 c-32 -37 -35 -48 -10 -37 25 10 73 74 56 74 -8 0 -29 -16
-46 -37z"/>
<path d="M5975 170 c-25 -26 -34 -40 -24 -40 14 0 79 62 79 75 0 14 -19 1 -55
-35z"/>
<path d="M325 160 c-24 -25 -33 -40 -24 -40 15 0 79 59 79 73 0 16 -18 5 -55
-33z"/>
<path d="M379 154 c-31 -32 -38 -45 -25 -42 19 3 83 74 75 83 -3 2 -25 -16
-50 -41z"/>
<path d="M1115 160 c-24 -25 -33 -40 -24 -40 8 0 33 18 54 40 24 25 33 40 24
40 -8 0 -33 -18 -54 -40z"/>
<path d="M1236 155 c-23 -28 -32 -45 -23 -45 12 0 77 71 77 84 0 17 -22 1 -54
-39z"/>
<path d="M1305 160 c-29 -30 -35 -40 -21 -40 16 0 76 56 76 72 0 17 -17 6 -55
-32z"/>
<path d="M1835 160 c-24 -25 -33 -40 -24 -40 15 0 79 59 79 73 0 16 -18 5 -55
-33z"/>
<path d="M1965 160 c-53 -55 -20 -55 38 0 35 33 39 40 22 40 -12 0 -39 -18
-60 -40z"/>
<path d="M2940 165 c-22 -23 -29 -35 -19 -35 8 0 30 16 49 35 22 23 29 35 19
35 -8 0 -30 -16 -49 -35z"/>
<path d="M3005 160 c-24 -25 -33 -40 -24 -40 8 0 33 18 54 40 24 25 33 40 24
40 -8 0 -33 -18 -54 -40z"/>
<path d="M4350 165 c-22 -23 -29 -35 -19 -35 8 0 30 16 49 35 22 23 29 35 19
35 -8 0 -30 -16 -49 -35z"/>
<path d="M4416 165 c-32 -28 -35 -35 -20 -35 11 0 35 16 54 35 44 46 18 45
-34 0z"/>
<path d="M5125 160 c-24 -25 -33 -40 -24 -40 8 0 33 18 54 40 24 25 33 40 24
40 -8 0 -33 -18 -54 -40z"/>
<path d="M5246 155 c-22 -27 -31 -45 -23 -45 21 0 84 75 69 84 -5 3 -25 -15
-46 -39z"/>
<path d="M5317 162 c-21 -21 -37 -41 -37 -45 0 -14 49 17 69 44 32 42 9 43
-32 1z"/>
<path d="M6025 160 c-24 -25 -33 -40 -24 -40 8 0 33 18 54 40 24 25 33 40 24
40 -8 0 -33 -18 -54 -40z"/>
<path d="M6177 173 c-46 -36 -58 -59 -19 -39 30 16 68 54 60 61 -2 3 -21 -7
-41 -22z"/>
<path d="M1170 155 c-22 -23 -29 -35 -19 -35 8 0 30 16 49 35 22 23 29 35 19
35 -8 0 -30 -16 -49 -35z"/>
<path d="M1370 155 c-26 -26 -30 -35 -17 -35 16 0 77 50 77 64 0 17 -29 2 -60
-29z"/>
<path d="M1898 155 c-28 -26 -33 -35 -20 -35 10 0 33 16 52 35 45 46 17 46
-32 0z"/>
<path d="M5180 155 c-18 -19 -30 -38 -26 -42 3 -4 26 12 49 35 26 26 36 42 26
42 -8 0 -30 -16 -49 -35z"/>
<path d="M5380 155 c-42 -44 -18 -48 28 -4 35 33 38 39 19 39 -7 0 -28 -16
-47 -35z"/>
<path d="M6087 152 c-24 -24 -32 -39 -23 -39 8 0 32 18 53 39 23 24 31 38 22
38 -8 0 -32 -17 -52 -38z"/>
</g>
</svg>
