<svg width="398.9199951171875px" height="119.68001708984374px" xmlns="http://www.w3.org/2000/svg" viewBox="50.540002441406244 15.159991455078128 398.9199951171875 119.68001708984374" style="background: none;" preserveAspectRatio="xMidYMid"><defs><linearGradient id="editing-outline-gradient" x1="0.015190379753662886" x2="0.9848096202463371" y1="-0.37461970713939574" y2="1.3746197071393957"><stop offset="0" stop-color="#ee4208"></stop><stop offset="1" stop-color="#4139ff"></stop></linearGradient><filter id="editing-outline" x="-100%" y="-100%" width="300%" height="300%"><feMorphology in="SourceGraphic" operator="dilate" radius="1" result="outline"></feMorphology><feComposite operator="out" in="outline" in2="SourceAlpha"></feComposite></filter></defs><g filter="url(#editing-outline)"><g transform="translate(110.99001431465149, 100.6299991607666)"><path d="M21.76-50.62L21.76-50.62Q26.82-50.62 30.66-48.38L30.66-48.38L30.66-48.38Q34.50-46.14 36.67-42.56L36.67-42.56L36.67-42.56Q37.12-41.86 37.12-41.02L37.12-41.02L37.12-41.02Q37.12-39.81 35.97-39.10L35.97-39.10L35.97-39.10Q35.46-38.85 34.82-38.85L34.82-38.85L34.82-38.85Q34.11-38.85 33.50-39.20L33.50-39.20L33.50-39.20Q32.90-39.55 32.51-40.19L32.51-40.19L32.51-40.19Q28.93-45.82 21.70-45.89L21.70-45.89L21.70-45.89Q16.51-45.89 13.50-43.71L13.50-43.71L13.50-43.71Q10.50-41.54 10.50-37.50L10.50-37.50L10.50-37.50Q10.50-30.02 22.59-28.42L22.59-28.42L22.59-28.42Q30.53-27.26 34.43-23.55L34.43-23.55L34.43-23.55Q38.34-19.84 38.34-13.76L38.34-13.76L38.34-13.76Q38.34-9.28 36.16-6.02L36.16-6.02L36.16-6.02Q33.98-2.75 30.21-1.06L30.21-1.06L30.21-1.06Q26.43 0.64 21.76 0.64L21.76 0.64L21.76 0.64Q15.68 0.64 10.98-1.95L10.98-1.95L10.98-1.95Q6.27-4.54 4.22-8.96L4.22-8.96L4.22-8.96Q3.97-9.41 3.97-9.98L3.97-9.98L3.97-9.98Q3.97-10.88 4.64-11.49L4.64-11.49L4.64-11.49Q5.31-12.10 6.46-12.10L6.46-12.10L6.46-12.10Q7.23-12.10 7.90-11.68L7.90-11.68L7.90-11.68Q8.58-11.26 8.90-10.50L8.90-10.50L8.90-10.50Q10.37-7.62 13.79-5.86L13.79-5.86L13.79-5.86Q17.22-4.10 21.76-4.10L21.76-4.10L21.76-4.10Q27.01-4.10 30.21-6.62L30.21-6.62L30.21-6.62Q33.41-9.15 33.41-13.70L33.41-13.70L33.41-13.70Q33.41-17.73 30.43-20.48L30.43-20.48L30.43-20.48Q27.46-23.23 21.50-24L21.50-24L21.50-24Q14.08-24.90 9.82-28.64L9.82-28.64L9.82-28.64Q5.57-32.38 5.57-37.82L5.57-37.82L5.57-37.82Q5.57-41.66 7.65-44.58L7.65-44.58L7.65-44.58Q9.73-47.49 13.41-49.06L13.41-49.06L13.41-49.06Q17.09-50.62 21.76-50.62L21.76-50.62ZM63.04-35.33L63.04-35.33Q67.78-35.33 71.42-33.12L71.42-33.12L71.42-33.12Q75.07-30.91 77.09-27.01L77.09-27.01L77.09-27.01Q79.10-23.10 79.10-18.11L79.10-18.11L79.10-18.11Q79.10-17.09 78.46-16.48L78.46-16.48L78.46-16.48Q77.82-15.87 76.80-15.87L76.80-15.87L50.94-15.87L50.94-15.87Q51.46-10.62 55.04-7.36L55.04-7.36L55.04-7.36Q58.62-4.10 64-4.10L64-4.10L64-4.10Q66.30-4.10 68.64-4.90L68.64-4.90L68.64-4.90Q70.98-5.70 72.38-6.91L72.38-6.91L72.38-6.91Q73.22-7.55 74.11-7.55L74.11-7.55L74.11-7.55Q74.82-7.55 75.52-7.04L75.52-7.04L75.52-7.04Q76.35-6.27 76.35-5.31L76.35-5.31L76.35-5.31Q76.35-4.48 75.65-3.84L75.65-3.84L75.65-3.84Q73.54-2.05 70.27-0.86L70.27-0.86L70.27-0.86Q67.01 0.32 64 0.32L64 0.32L64 0.32Q58.88 0.32 54.85-1.95L54.85-1.95L54.85-1.95Q50.82-4.22 48.54-8.29L48.54-8.29L48.54-8.29Q46.27-12.35 46.27-17.47L46.27-17.47L46.27-17.47Q46.27-22.66 48.42-26.72L48.42-26.72L48.42-26.72Q50.56-30.78 54.37-33.06L54.37-33.06L54.37-33.06Q58.18-35.33 63.04-35.33L63.04-35.33ZM63.04-30.91L63.04-30.91Q58.18-30.91 54.98-27.90L54.98-27.90L54.98-27.90Q51.78-24.90 51.07-19.97L51.07-19.97L74.50-19.97L74.50-19.97Q73.98-24.90 70.91-27.90L70.91-27.90L70.91-27.90Q67.84-30.91 63.04-30.91L63.04-30.91ZM103.23-35.39L103.23-35.39Q105.92-35.39 107.49-34.69L107.49-34.69L107.49-34.69Q109.06-33.98 109.06-32.70L109.06-32.70L109.06-32.70Q109.06-32.32 108.99-32.13L108.99-32.13L108.99-32.13Q108.74-31.23 108.19-30.91L108.19-30.91L108.19-30.91Q107.65-30.59 106.69-30.59L106.69-30.59L106.69-30.59Q106.11-30.59 104.70-30.72L104.70-30.72L104.70-30.72Q104.19-30.78 103.17-30.78L103.17-30.78L103.17-30.78Q98.37-30.78 95.33-28.22L95.33-28.22L95.33-28.22Q92.29-25.66 92.29-21.57L92.29-21.57L92.29-2.43L92.29-2.43Q92.29-1.28 91.65-0.64L91.65-0.64L91.65-0.64Q91.01 0 89.86 0L89.86 0L89.86 0Q88.70 0 88.06-0.64L88.06-0.64L88.06-0.64Q87.42-1.28 87.42-2.43L87.42-2.43L87.42-32.58L87.42-32.58Q87.42-33.73 88.06-34.37L88.06-34.37L88.06-34.37Q88.70-35.01 89.86-35.01L89.86-35.01L89.86-35.01Q91.01-35.01 91.65-34.37L91.65-34.37L91.65-34.37Q92.29-33.73 92.29-32.58L92.29-32.58L92.29-29.76L92.29-29.76Q94.14-32.45 97.02-33.92L97.02-33.92L97.02-33.92Q99.90-35.39 103.23-35.39L103.23-35.39ZM144-34.82L144-34.82Q145.34-34.18 145.34-32.77L145.34-32.77L145.34-32.77Q145.34-32.38 145.15-31.87L145.15-31.87L131.14-1.66L131.14-1.66Q130.30 0 128.70 0L128.70 0L128.70 0Q127.17 0 126.40-1.66L126.40-1.66L112.19-31.81L112.19-31.81Q112-32.19 112-32.70L112-32.70L112-32.70Q112-34.05 113.41-34.75L113.41-34.75L113.41-34.75Q113.86-35.01 114.43-35.01L114.43-35.01L114.43-35.01Q115.07-35.01 115.62-34.69L115.62-34.69L115.62-34.69Q116.16-34.37 116.42-33.73L116.42-33.73L128.70-7.10L140.86-33.73L140.86-33.73Q141.12-34.37 141.70-34.72L141.70-34.72L141.70-34.72Q142.27-35.07 142.98-35.07L142.98-35.07L142.98-35.07Q143.55-35.07 144-34.82L144-34.82ZM153.15-32.51L153.15-32.51Q153.15-33.60 153.86-34.30L153.86-34.30L153.86-34.30Q154.56-35.01 155.65-35.01L155.65-35.01L155.65-35.01Q156.74-35.01 157.41-34.30L157.41-34.30L157.41-34.30Q158.08-33.60 158.08-32.51L158.08-32.51L158.08-2.50L158.08-2.50Q158.08-1.41 157.41-0.70L157.41-0.70L157.41-0.70Q156.74 0 155.65 0L155.65 0L155.65 0Q154.56 0 153.86-0.70L153.86-0.70L153.86-0.70Q153.15-1.41 153.15-2.50L153.15-2.50L153.15-32.51ZM155.65-48.64L155.65-48.64Q157.06-48.64 158.08-47.68L158.08-47.68L158.08-47.68Q159.10-46.72 159.10-45.18L159.10-45.18L159.10-45.18Q159.10-43.71 158.08-42.69L158.08-42.69L158.08-42.69Q157.06-41.66 155.58-41.66L155.58-41.66L155.58-41.66Q154.11-41.66 153.12-42.69L153.12-42.69L153.12-42.69Q152.13-43.71 152.13-45.18L152.13-45.18L152.13-45.18Q152.13-46.72 153.15-47.68L153.15-47.68L153.15-47.68Q154.18-48.64 155.65-48.64L155.65-48.64ZM185.60-35.33L185.60-35.33Q193.60-35.33 198.59-29.18L198.59-29.18L198.59-29.18Q199.10-28.61 199.10-27.84L199.10-27.84L199.10-27.84Q199.10-26.82 198.02-26.05L198.02-26.05L198.02-26.05Q197.44-25.66 196.80-25.66L196.80-25.66L196.80-25.66Q195.84-25.66 194.94-26.62L194.94-26.62L194.94-26.62Q193.02-28.74 190.72-29.79L190.72-29.79L190.72-29.79Q188.42-30.85 185.60-30.85L185.60-30.85L185.60-30.85Q182.08-30.85 179.33-29.15L179.33-29.15L179.33-29.15Q176.58-27.46 175.07-24.38L175.07-24.38L175.07-24.38Q173.57-21.31 173.57-17.47L173.57-17.47L173.57-17.47Q173.57-13.70 175.17-10.66L175.17-10.66L175.17-10.66Q176.77-7.62 179.65-5.89L179.65-5.89L179.65-5.89Q182.53-4.16 186.24-4.16L186.24-4.16L186.24-4.16Q191.36-4.16 194.50-6.91L194.50-6.91L194.50-6.91Q195.33-7.62 196.22-7.62L196.22-7.62L196.22-7.62Q196.99-7.62 197.63-7.10L197.63-7.10L197.63-7.10Q198.53-6.34 198.53-5.38L198.53-5.38L198.53-5.38Q198.53-4.54 197.89-3.97L197.89-3.97L197.89-3.97Q193.28 0.32 186.24 0.32L186.24 0.32L186.24 0.32Q181.25 0.32 177.28-2.02L177.28-2.02L177.28-2.02Q173.31-4.35 171.04-8.42L171.04-8.42L171.04-8.42Q168.77-12.48 168.77-17.47L168.77-17.47L168.77-17.47Q168.77-22.59 170.94-26.66L170.94-26.66L170.94-26.66Q173.12-30.72 176.96-33.02L176.96-33.02L176.96-33.02Q180.80-35.33 185.60-35.33L185.60-35.33ZM223.68-35.33L223.68-35.33Q228.42-35.33 232.06-33.12L232.06-33.12L232.06-33.12Q235.71-30.91 237.73-27.01L237.73-27.01L237.73-27.01Q239.74-23.10 239.74-18.11L239.74-18.11L239.74-18.11Q239.74-17.09 239.10-16.48L239.10-16.48L239.10-16.48Q238.46-15.87 237.44-15.87L237.44-15.87L211.58-15.87L211.58-15.87Q212.10-10.62 215.68-7.36L215.68-7.36L215.68-7.36Q219.26-4.10 224.64-4.10L224.64-4.10L224.64-4.10Q226.94-4.10 229.28-4.90L229.28-4.90L229.28-4.90Q231.62-5.70 233.02-6.91L233.02-6.91L233.02-6.91Q233.86-7.55 234.75-7.55L234.75-7.55L234.75-7.55Q235.46-7.55 236.16-7.04L236.16-7.04L236.16-7.04Q236.99-6.27 236.99-5.31L236.99-5.31L236.99-5.31Q236.99-4.48 236.29-3.84L236.29-3.84L236.29-3.84Q234.18-2.05 230.91-0.86L230.91-0.86L230.91-0.86Q227.65 0.32 224.64 0.32L224.64 0.32L224.64 0.32Q219.52 0.32 215.49-1.95L215.49-1.95L215.49-1.95Q211.46-4.22 209.18-8.29L209.18-8.29L209.18-8.29Q206.91-12.35 206.91-17.47L206.91-17.47L206.91-17.47Q206.91-22.66 209.06-26.72L209.06-26.72L209.06-26.72Q211.20-30.78 215.01-33.06L215.01-33.06L215.01-33.06Q218.82-35.33 223.68-35.33L223.68-35.33ZM223.68-30.91L223.68-30.91Q218.82-30.91 215.62-27.90L215.62-27.90L215.62-27.90Q212.42-24.90 211.71-19.97L211.71-19.97L235.14-19.97L235.14-19.97Q234.62-24.90 231.55-27.90L231.55-27.90L231.55-27.90Q228.48-30.91 223.68-30.91L223.68-30.91ZM260.16-35.33L260.16-35.33Q264.38-35.33 267.52-33.89L267.52-33.89L267.52-33.89Q270.66-32.45 272.58-29.89L272.58-29.89L272.58-29.89Q273.09-29.06 273.09-28.42L273.09-28.42L273.09-28.42Q273.09-27.33 272.06-26.69L272.06-26.69L272.06-26.69Q271.62-26.37 270.85-26.37L270.85-26.37L270.85-26.37Q269.50-26.37 268.61-27.33L268.61-27.33L268.61-27.33Q265.47-30.91 260.03-30.91L260.03-30.91L260.03-30.91Q256.51-30.91 254.40-29.47L254.40-29.47L254.40-29.47Q252.29-28.03 252.29-25.86L252.29-25.86L252.29-25.86Q252.29-23.55 254.27-22.18L254.27-22.18L254.27-22.18Q256.26-20.80 261.31-19.97L261.31-19.97L261.31-19.97Q268.16-18.82 271.10-16.22L271.10-16.22L271.10-16.22Q274.05-13.63 274.05-9.79L274.05-9.79L274.05-9.79Q274.05-6.85 272.29-4.54L272.29-4.54L272.29-4.54Q270.53-2.24 267.39-0.96L267.39-0.96L267.39-0.96Q264.26 0.32 260.29 0.32L260.29 0.32L260.29 0.32Q256.32 0.32 252.67-1.02L252.67-1.02L252.67-1.02Q249.02-2.37 246.78-4.80L246.78-4.80L246.78-4.80Q246.14-5.57 246.14-6.27L246.14-6.27L246.14-6.27Q246.14-7.36 247.17-8.19L247.17-8.19L247.17-8.19Q247.94-8.77 248.77-8.77L248.77-8.77L248.77-8.77Q249.86-8.77 250.62-7.87L250.62-7.87L250.62-7.87Q252.16-6.08 254.69-5.12L254.69-5.12L254.69-5.12Q257.22-4.16 260.29-4.16L260.29-4.16L260.29-4.16Q264.77-4.16 267.01-5.70L267.01-5.70L267.01-5.70Q269.25-7.23 269.31-9.73L269.31-9.73L269.31-9.73Q269.31-12.03 267.07-13.57L267.07-13.57L267.07-13.57Q264.83-15.10 259.97-15.87L259.97-15.87L259.97-15.87Q253.70-16.90 250.59-19.42L250.59-19.42L250.59-19.42Q247.49-21.95 247.49-25.54L247.49-25.54L247.49-25.54Q247.49-30.21 251.10-32.77L251.10-32.77L251.10-32.77Q254.72-35.33 260.16-35.33L260.16-35.33Z" fill="url(#editing-outline-gradient)"></path></g></g><style>text {
  font-size: 64px;
  font-family: Arial Black;
  dominant-baseline: central;
  text-anchor: middle;
}</style></svg>