<svg width="857.400048828125px" height="272.03999023437495px" xmlns="http://www.w3.org/2000/svg" viewBox="-178.7000244140625 -61.01999511718748 857.400048828125 272.03999023437495" style="background: none;" preserveAspectRatio="xMidYMid"><defs><linearGradient id="editing-shiny-gradient" x1="0.4390653282974263" x2="0.5609346717025737" y1="0.0037269241793390084" y2="0.996273075820661" gradientUnits="objectBoundingBox"><stop offset="0.0" stop-color="#cf4035"></stop><stop offset="0.5" stop-color="#ac4066"></stop><stop offset="1.0" stop-color="#653bcc"></stop></linearGradient><linearGradient id="editing-shiny-gradient2" x1="0" x2="0" y1="0" y2="1"><stop offset="0.2" stop-color="#fff" stop-opacity="0.8"></stop><stop offset="0.8" stop-color="#fff" stop-opacity="0"></stop></linearGradient><filter id="editing-shiny2" x="-100%" y="-100%" width="300%" height="300%"><feMorphology operator="erode" radius="2"></feMorphology></filter><filter id="editing-shiny" x="-100%" y="-100%" width="300%" height="300%"><feFlood flood-color="#fff" result="flood"></feFlood><feConvolveMatrix in="SourceGraphic" result="conv" order="8,8" divisor="1" kernelMatrix="0 0 0 0 0 0 0 0 0 0 0 1 1 0 0 0 0 0 0 1 1 0 0 0 0 0 1 0 0 1 0 0 0 0 1 0 0 1 0 0 0 1 0 0 0 0 1 0 0 1 1 0 0 1 1 0 0 0 0 1 1 0 0 0 "></feConvolveMatrix><feOffset dx="0" dy="4" in="conv" result="offset"></feOffset><feComposite operator="in" in="flood" in2="offset" result="comp"></feComposite><feGaussianBlur in="offset" stdDeviation="3" result="shadow"></feGaussianBlur><feColorMatrix in="shadow" type="matrix" values="0.7 0 0 0 0  0 0.7 0 0 0  0 0 0.7 0 0  0 0 0 0.3 0" result="dark-shadow"></feColorMatrix><feOffset dx="0" dy="4" in="dark-shadow" result="offset-shadow"></feOffset><feOffset dx="0" dy="2" in="conv" result="offset-2"></feOffset><feComposite operator="out" in="offset" in2="offset-2" result="edge-diff"></feComposite><feGaussianBlur in="edge-diff" stdDeviation="1" result="edge-blur"></feGaussianBlur><feColorMatrix in="edge-blur" result="edge-shadow" type="matrix" values="0 0 0 0 0  0 0 0 0 0  0 0 0 0 0  0 0 0 0.5 0"></feColorMatrix><feComposite operator="in" in="edge-shadow" in2="offset" result="edge-shadow-in"></feComposite><feOffset dx="0" dy="1" in="edge-shadow-in" result="edge-shadow-final"></feOffset><feMerge result="out"><feMergeNode in="offset-shadow"></feMergeNode><feMergeNode in="comp"></feMergeNode><feMergeNode in="edge-shadow-final"></feMergeNode><feMergeNode in="SourceGraphic"></feMergeNode></feMerge></filter></defs><g filter="url(#editing-shiny)"><g transform="translate(-57.65001392364502, 131.10000610351562)"><path d="M46.05 0.90L46.05 0.90Q34.35 0.90 23.63-2.85L23.63-2.85L23.63-2.85Q12.90-6.60 7.05-12.75L7.05-12.75L11.40-21.30L11.40-21.30Q17.10-15.60 26.55-12.07L26.55-12.07L26.55-12.07Q36-8.55 46.05-8.55L46.05-8.55L46.05-8.55Q60.15-8.55 67.20-13.72L67.20-13.72L67.20-13.72Q74.25-18.90 74.25-27.15L74.25-27.15L74.25-27.15Q74.25-33.45 70.42-37.20L70.42-37.20L70.42-37.20Q66.60-40.95 61.05-42.98L61.05-42.98L61.05-42.98Q55.50-45 45.60-47.40L45.60-47.40L45.60-47.40Q33.75-50.40 26.70-53.17L26.70-53.17L26.70-53.17Q19.65-55.95 14.63-61.65L14.63-61.65L14.63-61.65Q9.60-67.35 9.60-77.10L9.60-77.10L9.60-77.10Q9.60-85.05 13.80-91.58L13.80-91.58L13.80-91.58Q18-98.10 26.70-102L26.70-102L26.70-102Q35.40-105.90 48.30-105.90L48.30-105.90L48.30-105.90Q57.30-105.90 65.92-103.42L65.92-103.42L65.92-103.42Q74.55-100.95 80.85-96.60L80.85-96.60L77.10-87.75L77.10-87.75Q70.50-92.10 63-94.27L63-94.27L63-94.27Q55.50-96.45 48.30-96.45L48.30-96.45L48.30-96.45Q34.50-96.45 27.52-91.13L27.52-91.13L27.52-91.13Q20.55-85.80 20.55-77.40L20.55-77.40L20.55-77.40Q20.55-71.10 24.38-67.27L24.38-67.27L24.38-67.27Q28.20-63.45 33.98-61.42L33.98-61.42L33.98-61.42Q39.75-59.40 49.50-57L49.50-57L49.50-57Q61.05-54.15 68.17-51.38L68.17-51.38L68.17-51.38Q75.30-48.60 80.25-42.98L80.25-42.98L80.25-42.98Q85.20-37.35 85.20-27.75L85.20-27.75L85.20-27.75Q85.20-19.80 80.92-13.28L80.92-13.28L80.92-13.28Q76.65-6.75 67.80-2.92L67.80-2.92L67.80-2.92Q58.95 0.90 46.05 0.90L46.05 0.90ZM175.95-39.45L175.80-36.15L109.80-36.15L109.80-36.15Q110.70-23.85 119.25-16.27L119.25-16.27L119.25-16.27Q127.80-8.70 140.85-8.70L140.85-8.70L140.85-8.70Q148.20-8.70 154.35-11.32L154.35-11.32L154.35-11.32Q160.50-13.95 165-19.05L165-19.05L171-12.15L171-12.15Q165.75-5.85 157.88-2.55L157.88-2.55L157.88-2.55Q150 0.75 140.55 0.75L140.55 0.75L140.55 0.75Q128.40 0.75 119.03-4.42L119.03-4.42L119.03-4.42Q109.65-9.60 104.40-18.75L104.40-18.75L104.40-18.75Q99.15-27.90 99.15-39.45L99.15-39.45L99.15-39.45Q99.15-51 104.17-60.15L104.17-60.15L104.17-60.15Q109.20-69.30 117.97-74.40L117.97-74.40L117.97-74.40Q126.75-79.50 137.70-79.50L137.70-79.50L137.70-79.50Q148.65-79.50 157.35-74.40L157.35-74.40L157.35-74.40Q166.05-69.30 171-60.22L171-60.22L171-60.22Q175.95-51.15 175.95-39.45L175.95-39.45ZM137.70-70.35L137.70-70.35Q126.30-70.35 118.58-63.07L118.58-63.07L118.58-63.07Q110.85-55.80 109.80-44.10L109.80-44.10L165.75-44.10L165.75-44.10Q164.70-55.80 156.97-63.07L156.97-63.07L156.97-63.07Q149.25-70.35 137.70-70.35L137.70-70.35ZM207.90-63.45L207.90-63.45Q211.65-71.40 219.07-75.45L219.07-75.45L219.07-75.45Q226.50-79.50 237.45-79.50L237.45-79.50L237.45-69.15L234.90-69.30L234.90-69.30Q222.45-69.30 215.40-61.65L215.40-61.65L215.40-61.65Q208.35-54 208.35-40.20L208.35-40.20L208.35 0L197.70 0L197.70-78.90L207.90-78.90L207.90-63.45ZM313.65-78.90L324.15-78.90L289.05 0L278.10 0L243.15-78.90L254.25-78.90L283.80-11.70L313.65-78.90ZM339.15 0L339.15-78.90L349.80-78.90L349.80 0L339.15 0ZM344.55-96.15L344.55-96.15Q341.25-96.15 339-98.40L339-98.40L339-98.40Q336.75-100.65 336.75-103.80L336.75-103.80L336.75-103.80Q336.75-106.80 339-109.05L339-109.05L339-109.05Q341.25-111.30 344.55-111.30L344.55-111.30L344.55-111.30Q347.85-111.30 350.10-109.13L350.10-109.13L350.10-109.13Q352.35-106.95 352.35-103.95L352.35-103.95L352.35-103.95Q352.35-100.65 350.10-98.40L350.10-98.40L350.10-98.40Q347.85-96.15 344.55-96.15L344.55-96.15ZM412.20 0.75L412.20 0.75Q400.50 0.75 391.28-4.35L391.28-4.35L391.28-4.35Q382.05-9.45 376.80-18.68L376.80-18.68L376.80-18.68Q371.55-27.90 371.55-39.45L371.55-39.45L371.55-39.45Q371.55-51 376.80-60.15L376.80-60.15L376.80-60.15Q382.05-69.30 391.28-74.40L391.28-74.40L391.28-74.40Q400.50-79.50 412.20-79.50L412.20-79.50L412.20-79.50Q422.40-79.50 430.43-75.52L430.43-75.52L430.43-75.52Q438.45-71.55 443.10-63.90L443.10-63.90L435.15-58.50L435.15-58.50Q431.25-64.35 425.25-67.27L425.25-67.27L425.25-67.27Q419.25-70.20 412.20-70.20L412.20-70.20L412.20-70.20Q403.65-70.20 396.83-66.38L396.83-66.38L396.83-66.38Q390.00-62.55 386.18-55.50L386.18-55.50L386.18-55.50Q382.35-48.45 382.35-39.45L382.35-39.45L382.35-39.45Q382.35-30.30 386.18-23.32L386.18-23.32L386.18-23.32Q390.00-16.35 396.83-12.53L396.83-12.53L396.83-12.53Q403.65-8.70 412.20-8.70L412.20-8.70L412.20-8.70Q419.25-8.70 425.25-11.55L425.25-11.55L425.25-11.55Q431.25-14.40 435.15-20.25L435.15-20.25L443.10-14.85L443.10-14.85Q438.45-7.20 430.35-3.23L430.35-3.23L430.35-3.23Q422.25 0.75 412.20 0.75L412.20 0.75ZM532.80-39.45L532.65-36.15L466.65-36.15L466.65-36.15Q467.55-23.85 476.10-16.27L476.10-16.27L476.10-16.27Q484.65-8.70 497.70-8.70L497.70-8.70L497.70-8.70Q505.05-8.70 511.20-11.32L511.20-11.32L511.20-11.32Q517.35-13.95 521.85-19.05L521.85-19.05L527.85-12.15L527.85-12.15Q522.60-5.85 514.73-2.55L514.73-2.55L514.73-2.55Q506.85 0.75 497.40 0.75L497.40 0.75L497.40 0.75Q485.25 0.75 475.88-4.42L475.88-4.42L475.88-4.42Q466.50-9.60 461.25-18.75L461.25-18.75L461.25-18.75Q456-27.90 456-39.45L456-39.45L456-39.45Q456-51 461.03-60.15L461.03-60.15L461.03-60.15Q466.05-69.30 474.83-74.40L474.83-74.40L474.83-74.40Q483.60-79.50 494.55-79.50L494.55-79.50L494.55-79.50Q505.50-79.50 514.20-74.40L514.20-74.40L514.20-74.40Q522.90-69.30 527.85-60.22L527.85-60.22L527.85-60.22Q532.80-51.15 532.80-39.45L532.80-39.45ZM494.55-70.35L494.55-70.35Q483.15-70.35 475.43-63.07L475.43-63.07L475.43-63.07Q467.70-55.80 466.65-44.10L466.65-44.10L522.60-44.10L522.60-44.10Q521.55-55.80 513.83-63.07L513.83-63.07L513.83-63.07Q506.10-70.35 494.55-70.35L494.55-70.35ZM575.70 0.75L575.70 0.75Q566.10 0.75 557.33-2.02L557.33-2.02L557.33-2.02Q548.55-4.80 543.60-9L543.60-9L548.40-17.40L548.40-17.40Q553.35-13.50 560.85-11.03L560.85-11.03L560.85-11.03Q568.35-8.55 576.45-8.55L576.45-8.55L576.45-8.55Q587.25-8.55 592.43-11.92L592.43-11.92L592.43-11.92Q597.60-15.30 597.60-21.45L597.60-21.45L597.60-21.45Q597.60-25.80 594.75-28.27L594.75-28.27L594.75-28.27Q591.90-30.75 587.55-32.02L587.55-32.02L587.55-32.02Q583.20-33.30 576-34.50L576-34.50L576-34.50Q566.40-36.30 560.55-38.17L560.55-38.17L560.55-38.17Q554.70-40.05 550.58-44.55L550.58-44.55L550.58-44.55Q546.45-49.05 546.45-57L546.45-57L546.45-57Q546.45-66.90 554.70-73.20L554.70-73.20L554.70-73.20Q562.95-79.50 577.65-79.50L577.65-79.50L577.65-79.50Q585.30-79.50 592.95-77.47L592.95-77.47L592.95-77.47Q600.60-75.45 605.55-72.15L605.55-72.15L600.90-63.60L600.90-63.60Q591.15-70.35 577.65-70.35L577.65-70.35L577.65-70.35Q567.45-70.35 562.28-66.75L562.28-66.75L562.28-66.75Q557.10-63.15 557.10-57.30L557.10-57.30L557.10-57.30Q557.10-52.80 560.03-50.10L560.03-50.10L560.03-50.10Q562.95-47.40 567.30-46.13L567.30-46.13L567.30-46.13Q571.65-44.85 579.30-43.50L579.30-43.50L579.30-43.50Q588.75-41.70 594.45-39.90L594.45-39.90L594.45-39.90Q600.15-38.10 604.20-33.75L604.20-33.75L604.20-33.75Q608.25-29.40 608.25-21.75L608.25-21.75L608.25-21.75Q608.25-11.40 599.63-5.33L599.63-5.33L599.63-5.33Q591 0.75 575.70 0.75L575.70 0.75Z" fill="url(#editing-shiny-gradient)"></path></g></g><g filter="url(#editing-shiny2)"><g transform="translate(-57.64999485015869, 131.10000228881836)"><path d="M46.05 0.90L46.05 0.90Q34.35 0.90 23.63-2.85L23.63-2.85L23.63-2.85Q12.90-6.60 7.05-12.75L7.05-12.75L11.40-21.30L11.40-21.30Q17.10-15.60 26.55-12.07L26.55-12.07L26.55-12.07Q36-8.55 46.05-8.55L46.05-8.55L46.05-8.55Q60.15-8.55 67.20-13.72L67.20-13.72L67.20-13.72Q74.25-18.90 74.25-27.15L74.25-27.15L74.25-27.15Q74.25-33.45 70.42-37.20L70.42-37.20L70.42-37.20Q66.60-40.95 61.05-42.98L61.05-42.98L61.05-42.98Q55.50-45 45.60-47.40L45.60-47.40L45.60-47.40Q33.75-50.40 26.70-53.17L26.70-53.17L26.70-53.17Q19.65-55.95 14.63-61.65L14.63-61.65L14.63-61.65Q9.60-67.35 9.60-77.10L9.60-77.10L9.60-77.10Q9.60-85.05 13.80-91.58L13.80-91.58L13.80-91.58Q18-98.10 26.70-102L26.70-102L26.70-102Q35.40-105.90 48.30-105.90L48.30-105.90L48.30-105.90Q57.30-105.90 65.92-103.42L65.92-103.42L65.92-103.42Q74.55-100.95 80.85-96.60L80.85-96.60L77.10-87.75L77.10-87.75Q70.50-92.10 63-94.27L63-94.27L63-94.27Q55.50-96.45 48.30-96.45L48.30-96.45L48.30-96.45Q34.50-96.45 27.52-91.13L27.52-91.13L27.52-91.13Q20.55-85.80 20.55-77.40L20.55-77.40L20.55-77.40Q20.55-71.10 24.38-67.27L24.38-67.27L24.38-67.27Q28.20-63.45 33.98-61.42L33.98-61.42L33.98-61.42Q39.75-59.40 49.50-57L49.50-57L49.50-57Q61.05-54.15 68.17-51.38L68.17-51.38L68.17-51.38Q75.30-48.60 80.25-42.98L80.25-42.98L80.25-42.98Q85.20-37.35 85.20-27.75L85.20-27.75L85.20-27.75Q85.20-19.80 80.92-13.28L80.92-13.28L80.92-13.28Q76.65-6.75 67.80-2.92L67.80-2.92L67.80-2.92Q58.95 0.90 46.05 0.90L46.05 0.90ZM175.95-39.45L175.80-36.15L109.80-36.15L109.80-36.15Q110.70-23.85 119.25-16.27L119.25-16.27L119.25-16.27Q127.80-8.70 140.85-8.70L140.85-8.70L140.85-8.70Q148.20-8.70 154.35-11.32L154.35-11.32L154.35-11.32Q160.50-13.95 165-19.05L165-19.05L171-12.15L171-12.15Q165.75-5.85 157.88-2.55L157.88-2.55L157.88-2.55Q150 0.75 140.55 0.75L140.55 0.75L140.55 0.75Q128.40 0.75 119.03-4.42L119.03-4.42L119.03-4.42Q109.65-9.60 104.40-18.75L104.40-18.75L104.40-18.75Q99.15-27.90 99.15-39.45L99.15-39.45L99.15-39.45Q99.15-51 104.17-60.15L104.17-60.15L104.17-60.15Q109.20-69.30 117.97-74.40L117.97-74.40L117.97-74.40Q126.75-79.50 137.70-79.50L137.70-79.50L137.70-79.50Q148.65-79.50 157.35-74.40L157.35-74.40L157.35-74.40Q166.05-69.30 171-60.22L171-60.22L171-60.22Q175.95-51.15 175.95-39.45L175.95-39.45ZM137.70-70.35L137.70-70.35Q126.30-70.35 118.58-63.07L118.58-63.07L118.58-63.07Q110.85-55.80 109.80-44.10L109.80-44.10L165.75-44.10L165.75-44.10Q164.70-55.80 156.97-63.07L156.97-63.07L156.97-63.07Q149.25-70.35 137.70-70.35L137.70-70.35ZM207.90-63.45L207.90-63.45Q211.65-71.40 219.07-75.45L219.07-75.45L219.07-75.45Q226.50-79.50 237.45-79.50L237.45-79.50L237.45-69.15L234.90-69.30L234.90-69.30Q222.45-69.30 215.40-61.65L215.40-61.65L215.40-61.65Q208.35-54 208.35-40.20L208.35-40.20L208.35 0L197.70 0L197.70-78.90L207.90-78.90L207.90-63.45ZM313.65-78.90L324.15-78.90L289.05 0L278.10 0L243.15-78.90L254.25-78.90L283.80-11.70L313.65-78.90ZM339.15 0L339.15-78.90L349.80-78.90L349.80 0L339.15 0ZM344.55-96.15L344.55-96.15Q341.25-96.15 339-98.40L339-98.40L339-98.40Q336.75-100.65 336.75-103.80L336.75-103.80L336.75-103.80Q336.75-106.80 339-109.05L339-109.05L339-109.05Q341.25-111.30 344.55-111.30L344.55-111.30L344.55-111.30Q347.85-111.30 350.10-109.13L350.10-109.13L350.10-109.13Q352.35-106.95 352.35-103.95L352.35-103.95L352.35-103.95Q352.35-100.65 350.10-98.40L350.10-98.40L350.10-98.40Q347.85-96.15 344.55-96.15L344.55-96.15ZM412.20 0.75L412.20 0.75Q400.50 0.75 391.28-4.35L391.28-4.35L391.28-4.35Q382.05-9.45 376.80-18.68L376.80-18.68L376.80-18.68Q371.55-27.90 371.55-39.45L371.55-39.45L371.55-39.45Q371.55-51 376.80-60.15L376.80-60.15L376.80-60.15Q382.05-69.30 391.28-74.40L391.28-74.40L391.28-74.40Q400.50-79.50 412.20-79.50L412.20-79.50L412.20-79.50Q422.40-79.50 430.43-75.52L430.43-75.52L430.43-75.52Q438.45-71.55 443.10-63.90L443.10-63.90L435.15-58.50L435.15-58.50Q431.25-64.35 425.25-67.27L425.25-67.27L425.25-67.27Q419.25-70.20 412.20-70.20L412.20-70.20L412.20-70.20Q403.65-70.20 396.83-66.38L396.83-66.38L396.83-66.38Q390.00-62.55 386.18-55.50L386.18-55.50L386.18-55.50Q382.35-48.45 382.35-39.45L382.35-39.45L382.35-39.45Q382.35-30.30 386.18-23.32L386.18-23.32L386.18-23.32Q390.00-16.35 396.83-12.53L396.83-12.53L396.83-12.53Q403.65-8.70 412.20-8.70L412.20-8.70L412.20-8.70Q419.25-8.70 425.25-11.55L425.25-11.55L425.25-11.55Q431.25-14.40 435.15-20.25L435.15-20.25L443.10-14.85L443.10-14.85Q438.45-7.20 430.35-3.23L430.35-3.23L430.35-3.23Q422.25 0.75 412.20 0.75L412.20 0.75ZM532.80-39.45L532.65-36.15L466.65-36.15L466.65-36.15Q467.55-23.85 476.10-16.27L476.10-16.27L476.10-16.27Q484.65-8.70 497.70-8.70L497.70-8.70L497.70-8.70Q505.05-8.70 511.20-11.32L511.20-11.32L511.20-11.32Q517.35-13.95 521.85-19.05L521.85-19.05L527.85-12.15L527.85-12.15Q522.60-5.85 514.73-2.55L514.73-2.55L514.73-2.55Q506.85 0.75 497.40 0.75L497.40 0.75L497.40 0.75Q485.25 0.75 475.88-4.42L475.88-4.42L475.88-4.42Q466.50-9.60 461.25-18.75L461.25-18.75L461.25-18.75Q456-27.90 456-39.45L456-39.45L456-39.45Q456-51 461.03-60.15L461.03-60.15L461.03-60.15Q466.05-69.30 474.83-74.40L474.83-74.40L474.83-74.40Q483.60-79.50 494.55-79.50L494.55-79.50L494.55-79.50Q505.50-79.50 514.20-74.40L514.20-74.40L514.20-74.40Q522.90-69.30 527.85-60.22L527.85-60.22L527.85-60.22Q532.80-51.15 532.80-39.45L532.80-39.45ZM494.55-70.35L494.55-70.35Q483.15-70.35 475.43-63.07L475.43-63.07L475.43-63.07Q467.70-55.80 466.65-44.10L466.65-44.10L522.60-44.10L522.60-44.10Q521.55-55.80 513.83-63.07L513.83-63.07L513.83-63.07Q506.10-70.35 494.55-70.35L494.55-70.35ZM575.70 0.75L575.70 0.75Q566.10 0.75 557.33-2.02L557.33-2.02L557.33-2.02Q548.55-4.80 543.60-9L543.60-9L548.40-17.40L548.40-17.40Q553.35-13.50 560.85-11.03L560.85-11.03L560.85-11.03Q568.35-8.55 576.45-8.55L576.45-8.55L576.45-8.55Q587.25-8.55 592.43-11.92L592.43-11.92L592.43-11.92Q597.60-15.30 597.60-21.45L597.60-21.45L597.60-21.45Q597.60-25.80 594.75-28.27L594.75-28.27L594.75-28.27Q591.90-30.75 587.55-32.02L587.55-32.02L587.55-32.02Q583.20-33.30 576-34.50L576-34.50L576-34.50Q566.40-36.30 560.55-38.17L560.55-38.17L560.55-38.17Q554.70-40.05 550.58-44.55L550.58-44.55L550.58-44.55Q546.45-49.05 546.45-57L546.45-57L546.45-57Q546.45-66.90 554.70-73.20L554.70-73.20L554.70-73.20Q562.95-79.50 577.65-79.50L577.65-79.50L577.65-79.50Q585.30-79.50 592.95-77.47L592.95-77.47L592.95-77.47Q600.60-75.45 605.55-72.15L605.55-72.15L600.90-63.60L600.90-63.60Q591.15-70.35 577.65-70.35L577.65-70.35L577.65-70.35Q567.45-70.35 562.28-66.75L562.28-66.75L562.28-66.75Q557.10-63.15 557.10-57.30L557.10-57.30L557.10-57.30Q557.10-52.80 560.03-50.10L560.03-50.10L560.03-50.10Q562.95-47.40 567.30-46.13L567.30-46.13L567.30-46.13Q571.65-44.85 579.30-43.50L579.30-43.50L579.30-43.50Q588.75-41.70 594.45-39.90L594.45-39.90L594.45-39.90Q600.15-38.10 604.20-33.75L604.20-33.75L604.20-33.75Q608.25-29.40 608.25-21.75L608.25-21.75L608.25-21.75Q608.25-11.40 599.63-5.33L599.63-5.33L599.63-5.33Q591 0.75 575.70 0.75L575.70 0.75Z" fill="url(#editing-shiny-gradient2)"></path></g></g><style>text {
  font-size: 64px;
  font-family: Arial Black;
  dominant-baseline: central;
  text-anchor: middle;
}</style></svg>